<?xml version="1.0" encoding="UTF-8"?>
<svg id="Capa_1" data-name="Capa 1" xmlns="http://www.w3.org/2000/svg" viewBox="0 0 70.86614 70.86614">
  <rect x="36.75271" y="44.13535" width=".19913" height="18.34815"/>
  <rect x="36.75271" y="8.38206" width=".19913" height="17.75039"/>
  <path d="M46.05355,50.18723c.05095-.13535.10151-.27031.15246-.40604.05056-.13535.07623-.29598.07623-.48227,0-.10151-.02139-.21975-.06378-.35548-.04239-.13535-.11007-.25786-.20302-.36832-.09295-.10968-.22441-.20691-.39321-.2917-.16957-.0844-.38076-.12679-.63473-.12679-.5585,0-.98166.15635-1.26947.46944-.28781.31348-.43132.72341-.43132,1.23135,0,.42316.09723.80392.2917,1.14229.19447.33876.46088.63046.79964.87587.33837.24542.73625.43132,1.19324.5585.45699.12679.95599.19019,1.49777.19019.77825,0,1.43827-.13146,1.98005-.3936.54139-.26214.97738-.6219,1.30759-1.07889.32981-.4566.56667-.98983.71058-1.59928.14352-.60907.21586-1.26052.21586-1.95438v-13.07391h2.8178v-.35509h-8.17416v.35509h2.8178v15.28226c0,.91399-.15246,1.553-.45699,1.91665-.30453.36404-.70241.54567-1.19324.54567-.38932,0-.69813-.08012-.92643-.24114-.2283-.16063-.34265-.4356-.34265-.82492,0-.23686.02528-.43171.07623-.58379.05056-.15246.10151-.29598.15207-.43171Z"/>
  <polygon points="19.60393 35.96053 19.60393 36.31602 27.77808 36.31602 27.77808 35.96053 24.96028 35.96053 24.96028 18.59672 27.77808 18.59672 27.77808 18.24163 19.60393 18.24163 19.60393 18.59672 22.42173 18.59672 22.42173 35.96053 19.60393 35.96053"/>
  <path d="M33.05879,35.19774c-.24153.25008-.44066.54061-.5974.87082-.15674.33059-.2353.71641-.2353,1.15707,0,.22869.04667.50639.14002.83231.09295.3267.25203.6359.47683.92799.22441.29248.51883.54256.88326.75025.36443.2073.81364.31153,1.34765.31153.26253,0,.50833-.03189.73702-.09568.22908-.0634.43871-.14157.62929-.23491.19097-.09334.36248-.19485.51494-.30531.15246-.11007.27964-.21586.38154-.31776.10151.16102.19485.30103.27964.41966.0844.11862.1758.21819.27303.2987.09762.08051.21002.13963.33681.17813.12718.03812.28003.05717.45777.05717.16102,0,.33059-.02995.50833-.08907.17813-.05951.3372-.16102.47683-.30531.14002-.1439.25631-.33254.34965-.56551s.14002-.52778.14002-.88365h-.17813c0,.13574-.00856.27342-.02528.41343-.01711.13963-.04667.26914-.08907.38738-.04278.11901-.10384.21625-.18435.29248s-.18863.11435-.32437.11435c-.22013,0-.41499-.11629-.58456-.34926-.16957-.23336-.36443-.55306-.58495-.95988.11007-.19485.21197-.39204.30531-.59117.09295-.19913.16918-.4111.22869-.63551.05912-.22441.10579-.47255.14002-.74364.03384-.27108.05056-.58067.05056-.92799,0-.27964.0105-.51922.03189-.71836.021-.19913.06767-.36209.14002-.48927.07195-.12718.1758-.22052.31114-.27964.13574-.05951.31348-.08907.534-.08907v-.17813h-2.41526v.17813c.23725,0,.43444.01906.59117.05717s.28159.12057.37493.24775.15907.31153.19719.55306.05717.56589.05717.97233c0,.40682-.04473.81364-.1334,1.22046-.08907.40682-.25669.81792-.50211,1.2333l-2.21185-4.22068c.13535-.07623.27964-.1653.4321-.26681.15246-.1019.29014-.22441.41304-.36871.1229-.1439.22441-.31153.30492-.50211s.12096-.41304.12096-.66741c0-.4321-.1124-.74986-.33681-.95327-.2248-.20341-.49783-.30531-.81987-.30531-.21197,0-.42199.04278-.62929.12718-.20769.08479-.39204.20769-.55306.36871s-.29248.35393-.39399.57834c-.1019.2248-.15246.48111-.15246.76931,0,.35587.04628.65885.13963.90893.09334.24969.1863.46827.27964.65457-.27108.15246-.55111.32203-.83892.50833-.2882.18669-.55306.40488-.79459.65457ZM35.47405,31.09841c.1653-.19485.35821-.29248.57834-.29248.33915,0,.57873.11007.71836.33059.14002.22052.20963.4745.20963.76269,0,.22869-.03384.42782-.10151.5974-.06806.16957-.15479.31776-.26058.44494-.10618.12718-.22869.23725-.36871.33059s-.28197.18241-.42588.26681c-.15246-.30492-.29053-.61023-.41304-.91515-.1229-.30531-.18435-.56784-.18435-.78836,0-.29637.08245-.54217.24775-.73702ZM34.76853,34.17447l2.47904,4.75429c-.23764.22052-.48966.40488-.75647.55306-.26681.14857-.55306.22247-.85798.22247-.27964,0-.55734-.11201-.8327-.33681-.27536-.22441-.5235-.51067-.74364-.85798-.22052-.34732-.39865-.73119-.534-1.15046-.13574-.41966-.20341-.81987-.20341-1.20141,0-.49122.13146-.88754.39399-1.18857.26292-.30064.61451-.56551,1.05517-.79459Z"/>
  <path d="M36.85237,3.63779c-11.16698,0-21.31574,5.69511-27.14776,15.23481l.67985.41538c5.68578-9.30089,15.58057-14.85365,26.4679-14.85365,17.09273,0,30.99895,13.90583,30.99895,30.99856s-13.90622,30.99895-30.99895,30.99895c-3.57505,0-7.07971-.60362-10.41634-1.79336l-.26758.74986c3.42259,1.22085,7.01709,1.84003,10.68393,1.84003,17.53222,0,31.79548-14.26326,31.79548-31.79548S54.38459,3.63779,36.85237,3.63779Z"/>
  <path d="M20.12738,47.41673c-.01274-.27906-.27945-1.06893-.46322-1.24237-1.35785-1.28143-3.37072,2.23881-3.52692,3.32543l-.79099-.19942.1966.99141c-.62803.06578-.96251-.62625-1.52626-.95512-.97836-.57068-1.6744-.77118-2.84357-.63213l.99236,2.97865c-.73012-.02846-3.85912-1.37915-4.15407-.46886-.10696,1.32339,1.30136,2.04619,2.46689,2.07502,1.39694.03454,2.20062-1.2579,3.27567-.01604l-.39438-1.38967c1.08492.43217,2.27661-.32289,3.17533.39625l-.31435-1.79805c1.5108-.39895,3.99782-1.07671,3.90691-3.06509Z"/>
  <path d="M11.471,47.12076c.99017-.00472,1.22771-2.30194,1.59243-2.38986.53867-.12988.79838,2.10368,1.38766,2.37967,1.7093-1.21818,3.46241-3.33253,2.85388-5.5338-2.001-.19427-2.76962,1.62651-3.44982,3.14915-1.05828-1.2254-.40201-2.44073-2.59286-2.38879-1.64386.03897-.93441,4.7891.20871,4.78363Z"/>
  <path d="M16.73746,52.67828c-.0825.37697.97067,3.87723,1.18775,3.57532l.00073-1.19305c1.45975.71665,4.87248-2.98723,3.58876-3.88578-1.16572-.81595-4.13044.75676-3.7875,2.4954-.70032.12504-.53449-.83567-.98973-.99189Z"/>
  <path d="M8.19114,38.92258c-.14653-.27493-.65253-.37833-.92356-.61869-.29082-.25801-.63114-1.28685-1.27005-.83922-1.19849,2.37586.30244,4.55034,2.79106,4.88021.16316-.1855-.42257-3.09414-.59745-3.4223Z"/>
  <path d="M10.97409,48.30527c.19592-.18946-.61908-1.76392-.88744-1.99154-.20924-.1775-.56502-.21-.80091-.39102-.83771-.64288-1.09678-1.29215-2.46611-.97746-.56959,3.14684,1.50152,3.61326,4.15446,3.36002Z"/>
  <path d="M8.02444,36.9507c1.40151,1.18138,4.22359-3.46666,3.74492-3.9422-2.53213-.19862-4.00365,1.46722-3.74492,3.9422Z"/>
  <path d="M2.54761,51.69667c-.38149.09295-.34625.75117-.30473,1.06343.2846,2.14204,4.11887,3.11444,4.15854,2.20324-.35223-.95504-2.89943-3.49926-3.85382-3.26668Z"/>
  <path d="M8.38269,27.24146c.24721-1.14127,1.24346-2.83645,1.3651-3.9203.03753-.33463.03082-.44725-.27595-.63668-1.41726.3752-2.69228,1.16917-2.42664,2.8222.10258.63821.53347,1.81896,1.33748,1.73478Z"/>
  <path d="M7.77747,32.39285c.16627-.18688-.80139-3.86138-1.07272-4.16141-.60722-.67137-1.3755.87607-1.45713,1.3485-.21323,1.23388,1.1157,3.481,2.52985,2.81292Z"/>
  <path d="M9.98095,56.45096c-.21275-.2197-3.38676,1.02717-3.55191,1.52264-.46127,1.38423,3.32803,2.03053,3.66674-.11775.07156-.45352-.18994-.93618-.11483-1.40489Z"/>
  <path d="M11.968,57.04639c-.72643-2.12101-2.09614-3.92139-4.56911-3.77292-.32043,2.1672,1.77839,1.80051,2.85324,2.61033.58048.43735.67941,1.39424,1.71587,1.16259Z"/>
  <path d="M16.11391,56.38283c-.04628-.17735-1.30491-1.81594-1.40691-1.8735-.13861-.0782-1.99536-.28601-2.20757-.2142-1.49364,1.46739,1.17433,2.40058,2.41054,2.50931.21532.01896,1.34074.10219,1.20394-.4216Z"/>
  <path d="M9.79417,38.86755c-.02586.90524,1.66987,2.34943,2.47321,2.67854.66527-.0316.1406-3.05576-.34979-3.51871-.65695-.62022-2.09624-.11036-2.12342.84016Z"/>
  <path d="M12.86142,58.62093c-.46001-.0107-.85852.10209-1.28974.21817.32651,1.94354,3.26352,1.75794,4.76567,1.3854.62521-.94846-2.87853-1.58966-3.47592-1.60356Z"/>
  <path d="M21.90022,62.31322c-.71165-.85139-1.68397-1.70033-2.3841-2.58238-.31635-.39856-.58733-1.21176-.90052-1.49687-.19199-.17485-.79313.00695-1.08366-.39083l.79147,1.58854c-.31698.30081-1.74251-1.22593-1.58635-.20159l1.62009.66651,3.93909,3.1113c.08513-.37277-.20934-.47143-.39603-.69468Z"/>
</svg>